<?xml version="1.0" encoding="utf-8"?>
<!-- Generator: Adobe Illustrator 23.0.5, SVG Export Plug-In . SVG Version: 6.00 Build 0)  -->
<svg version="1.1" xmlns="http://www.w3.org/2000/svg" xmlns:xlink="http://www.w3.org/1999/xlink" x="0px" y="0px"
	 viewBox="0 0 500 500" style="enable-background:new 0 0 500 500;" xml:space="preserve">
<style type="text/css">
	.st0{fill:#BAC0E5;}
	.st1{fill:#CFE2E1;}
	.st2{fill:#4F57A2;}
	.st3{fill:#744A93;}
	.st4{fill:#D8A29A;}
	.st5{fill:#8995DB;}
	.st6{fill:#262C4C;}
	.st7{fill:none;stroke:#616FAA;stroke-width:0.25;stroke-linecap:round;stroke-miterlimit:10;}
	.st8{fill:none;stroke:#616FAA;stroke-width:0.5;stroke-linecap:round;stroke-miterlimit:10;}
	.st9{fill:#C18F8A;}
	.st10{fill:none;stroke:#AFD1D1;stroke-width:0.75;stroke-linecap:round;stroke-miterlimit:10;}
	.st11{fill:#AFD1D1;}
	.st12{fill:none;stroke:#4F57A2;stroke-width:0.75;stroke-linecap:round;stroke-miterlimit:10;}
</style>
<g id="BACKGROUND">
</g>
<g id="OBJECTS">
	<g>
		<ellipse class="st0" cx="250" cy="375.2" rx="182" ry="8.6"/>
		<ellipse class="st0" cx="209.5" cy="387.7" rx="112.6" ry="8.6"/>
		<path class="st1" d="M183.2,371.5c0,0-48.6,5.4-64.6-45.9c-16-51.3-2-53.3-40-84c-38-30.7-37.3-101.2,13.3-104.6
			c50.7-3.4,92.6,1.7,126.3-30.2c33.7-31.9,72.9-31.9,99.7,3.5c26.7,35.3,71.3,20.4,98,28.5c26.7,8.1,60,62.8-7.3,99.5
			c-21.3,12.3-2,60.9-24,93.8C362.6,364.9,339.9,380.1,183.2,371.5z"/>
		<g>
			<path class="st2" d="M311.6,289.7h45.5v38.2h-50.1l-7,56h-39.6l7-56H216l-7,56h-39.2l7-56h-45.9v-38.2h50.4l7.4-56.7h-45.9v-38.2
				h50.4l7-56h39.2l-7,56H284l7-56h39.2l-7,56h45.5l0.4,38.2h-50.4L311.6,289.7z M272.1,289.7l7.4-56.7h-51.5l-7.4,56.7H272.1z"/>
		</g>
		<path class="st1" d="M40.4,104h90.6c0,0,7.3-1.8-3.2-4.9c-10.5-3.1-19-14.4-22.8-12.3c-3.8,2.1-8.5-2.6-13.3-8.9S74,71.2,68.3,81
			s-6.1,12-16.4,12.3c-6.6,0.2-11,2.9-13.6,5.9C36.5,101.1,37.8,104,40.4,104z"/>
		<path class="st1" d="M376.3,92c0,0,5-13.1,12.3-12.8c7.3,0.3,13.8,11.1,17.5,12.8s3.3-3.3,8.8-1.7c5.5,1.7,8.8,4.4,15.8,4.9
			s11.5,1.2,9,3.9c-2.5,2.6-76.3,2.4-80,0C355.8,96.8,358,93.5,376.3,92z"/>
	</g>
	<g>
		<path class="st3" d="M166.3,152.4c0,0-4.3-3.7-4.3-9.3s3.3-10.5,9.6-12.3s13.7,1.4,16,9.9s0.6,13.1,3.5,17.6s7.1,8.1,5.5,12.6
			s-7,5.3-9,3.6s-7.6-6.3-9.7-12C175.9,157,168.2,157.8,166.3,152.4z"/>
		<path class="st4" d="M164.7,142.9c0,0-1.5,5.2,1.6,9.5c3.3,4.6,10.2,2,10.2,2l1.4,2.3l4.5-2.3l-2.5-4.6c0,0-2-1.5-0.5-6
			c1.6-4.5-2.9-5.2-4.3-3.2c-1.4,2-1.7,3.6-1.7,3.6S168.1,147.2,164.7,142.9z"/>
		<path class="st5" d="M185.4,157.6c0-1.9-1.7-3.4-3.6-3.1c-1,0.2-2.1,1-2.7,2.9c-1.7,5.2-2.5,19.5-2.5,19.5l-16.8,3v2.7l23.7-1.2
			C183.4,181.4,185.5,165.9,185.4,157.6z"/>
		<g>
			<path class="st6" d="M152.1,181.8c-3.8,0.9-5.7,9.9-5.9,15.5c-0.2,4.6-3.3,17-4.4,21c0,0,0,0,0,0l4.3,0.6l12.1-31.4l14.4-5.3
				C172.6,182.1,155.9,180.9,152.1,181.8z"/>
		</g>
		<g>
			<path class="st6" d="M192,185c-0.3-1.8-1-3.4-2.9-3.4c-3.6,0.1-11.1,0.2-15.1,0.3c-5.3,0.2-15.9,5.5-15.9,5.5l-6.9,18.1
				c0,0,6.7,15.2,7.7,17.9c0,0,0,0,0,0c0,0,0,0,0,0l3.4-2.2c0,0,0,0,0,0c-0.4-0.8-0.7-2-1-3.6c-0.7-4.7-3-21-3-21s19.5-0.5,24.6-1.7
				C187.2,193.9,192.7,189.6,192,185z"/>
		</g>
		<path class="st5" d="M177.9,156.7c0,0-2.1,4.5-3.3,7.9s0,5.2,2.3,8.8c2.3,3.7,2.3,8.4,2.3,8.4l12,0.3c0,0-1.5-28.1-8.8-27.7
			L177.9,156.7z"/>
		<path class="st4" d="M159.8,180.4c0,0-1.7-0.4-3.8-0.9s-3.3-0.7-3.9,0.4s-0.5,2.2-0.5,2.2h8.2V180.4z"/>
		<rect x="141.4" y="182.2" class="st2" width="18" height="0.9"/>
		<polygon class="st2" points="134.2,165 141.4,182.2 142.7,182.2 135.5,165 		"/>
		<polygon class="st6" points="141.8,218.2 132.5,222.8 144.9,222.8 146.1,218.8 		"/>
		<polygon class="st6" points="158.9,223.4 157.2,234.2 164.5,224.5 162.4,221.2 		"/>
		<path class="st7" d="M176.8,173.4c0,0,0.2-16.2,3.2-17.8"/>
		<path class="st7" d="M183.4,181.4c0,0,4.2-23.1,1.2-25.8"/>
		<path class="st7" d="M151.2,205.5l6.9-18.1c0,0,8.8-4.2,14.4-5.3"/>
	</g>
	<g>
		<path class="st4" d="M252.9,362.5c0,0-6-3.1-12-0.4c-6.4,3-5,12-5,12l-3.1,1.1l1.7,6.1l6.3-1.9c0,0,2.3-2.1,7.5,0.9
			c5.2,3,7.1-2.3,4.9-4.5c-2.2-2.2-4-3-4-3S246.8,365.6,252.9,362.5z"/>
		<path class="st5" d="M234.9,379.2c0,0-0.4-5.3-10-8.9c-9.5-3.5-33.8-2-33.8-2l1,16.6C192.1,385,237.8,388.6,234.9,379.2z"/>
		<polygon class="st6" points="130.9,383.7 191.2,368.4 192.1,385 131.2,387.3 		"/>
		<polygon class="st6" points="191.2,368.4 158.8,353.9 148.5,379.2 154.9,377.6 163,367.7 171,373.5 		"/>
		<path class="st5" d="M235,380.7c0,0,1.3-7.5-6.7-7.7c-5-0.1-9.7,0.5-12.6,1c-1.5,0.3-3-0.8-3.1-2.4l-1.2-16.4l-5.3-0.3l-0.9,22.3
			c-0.1,1.2,0.7,2.3,1.9,2.6C213.2,381.7,231.8,386.7,235,380.7z"/>
		
			<rect x="214.1" y="336.6" transform="matrix(0.7413 0.6712 -0.6712 0.7413 285.8612 -55.2878)" class="st2" width="1.2" height="13.2"/>
		<path class="st4" d="M210.4,355.1c0,0,0.9-2,1.6-3.1c0.7-1.1,1.4-1.8,1.8-3.3c0.4-1.5,1.2-2.5,0.7-3c-0.5-0.5-2,0.2-2,0.2
			s-0.1-2.1-0.6-2.3c-0.6-0.2-3.8,0.9-4.4,3.8S207,355,207,355L210.4,355.1z"/>
		<path class="st3" d="M261.7,368.9c-0.2-3.9-2.9-16.9-8.9-18.4c-6-1.5-7.2,2.5-7.1,5c0.1,2.6,4,5.9,4,5.9l0,0
			c2,0.4,3.3,1.1,3.3,1.1c-6.1,3.1-3.8,10.3-3.8,10.3s1.9,0.8,4,3c2.2,2.2,0.2,7.5-4.9,4.5c-5.2-3-7.5-0.9-7.5-0.9
			C261.5,393.7,261.9,372.8,261.7,368.9z"/>
		<polygon class="st6" points="131.2,387.3 126.7,387.1 120.2,374.7 130.9,383.7 		"/>
		<path class="st8" d="M205.5,368.4l-0.4,8.9c0,0,0.1,2.1,1.9,2.6c1.8,0.5,13.1,3.4,20.6,3.6"/>
		<path class="st8" d="M212.3,368.4l0.2,3.2c0,0-0.2,2.9,3.1,2.4c3.3-0.5,12.6-1,12.6-1"/>
		<line class="st8" x1="148.5" y1="379.2" x2="154.9" y2="377.6"/>
		<line class="st8" x1="171" y1="373.5" x2="190.6" y2="368.5"/>
	</g>
	<g>
		<path class="st3" d="M314.1,77.6c-4.4-0.3-7.7,3.3-10.7-0.2c0,0-0.9-2.4-5.1-2.8c-4.2-0.4-8.2,7.4,1,14.4c0,0,0,0,0,0
			c-0.1-2,0-3.4,0-3.4c8.4,2.8,13.2-1.6,13.2-1.6c1.3,2.4,3.7,3,3.7,3s0.2,1,0,2.9c0.1,0,0.1-0.1,0.1-0.1s2-1.8,2.8-5.1
			C320.1,81.4,318.5,77.8,314.1,77.6z"/>
		<path class="st4" d="M299.5,85.6c0,0-0.6,8.2,2.2,12.4s10.7,4.3,13.6-2.8c1.7-5.2,1.2-8.2,1.2-8.2s-2.4-0.6-3.7-3
			C312.6,84,307.9,88.3,299.5,85.6z"/>
		<path class="st5" d="M297.9,104.3c0,0,9.5-4.7,20.9-0.3c2.5,1.3,3.7,4.1,3.1,7.9c-0.6,3.8-3.1,19.3-3.1,19.3s-7.8,2.8-17.9,0
			C301,131.2,291.2,108.3,297.9,104.3z"/>
		<path class="st4" d="M299.4,89.6c0,0-0.4-0.8-1.4-0.8c-1,0-2.2,2.9,2,4.6L299.4,89.6z"/>
		<path class="st4" d="M316.4,89.6c0,0,0.4-0.8,1.4-0.8c1,0,2.2,2.9-2,4.6L316.4,89.6z"/>
		<path class="st4" d="M305,100.5v2.9c0,0,0.8,2.2,3,1.8c2.2-0.3,2.5-2,2.5-2v-3C310.5,100.3,308.2,101.4,305,100.5z"/>
		<path class="st5" d="M314.3,121.6l-0.3,4.2c0,0,8.2,4.3,15.4,1.9c3.6-1-1.7-22.8-10.6-23.7c-1.9,0-3.7,5.8,3.3,16.3L314.3,121.6z"
			/>
		<path class="st5" d="M303.5,121.6l0.3,4.2c0,0-8.2,4.3-15.4,1.9c-3.6-1,1.7-22.8,10.6-23.7c1.9,0,3.7,5.8-3.3,16.3L303.5,121.6z"
			/>
		<polygon class="st2" points="306.7,116.2 312.3,116.2 311.7,124.5 307.3,124.5 		"/>
		<path class="st9" d="M303.6,122.3c0,0,1.4-0.8,2.5-1.2s2.3-0.9,2.8-0.5c0.4,0.4-0.7,1.2-0.7,1.2s2.2-1.2,3.4-1.3s1,3-1.1,4.2
			c-2.1,1.3-6.6,0.4-6.6,0.4L303.6,122.3z"/>
		<path class="st4" d="M314.2,122.3c0,0-1.4-0.8-2.5-1.2s-2.3-0.9-2.8-0.5s0.7,1.2,0.7,1.2s-2.2-1.2-3.4-1.3s-1,3,1.1,4.2
			c2.1,1.3,6.6,0.4,6.6,0.4L314.2,122.3z"/>
		<path class="st6" d="M327.7,137.3c-2.3-1.9-8.9-6.1-8.9-6.1c-4.3,1.3-8.9,1.2-8.9,1.2s-4.6,0-8.9-1.2c0,0-6.7,4.2-8.9,6.1
			c-2.3,1.9,1.5,32.9,1.5,32.9h3.3l5.4-27.5l5.6-4h1.9h1.9l5.6,4l5.4,27.5h3.3C326.2,170.2,329.9,139.2,327.7,137.3z"/>
		<polygon class="st6" points="293.5,170.2 291.3,178.6 296.9,172.6 296.9,170.2 		"/>
		<polygon class="st6" points="326.2,170.2 328.4,178.6 322.8,172.6 322.8,170.2 		"/>
		<path class="st8" d="M296.8,118.6c0,0,1.5-2.1,2.4-4.7"/>
		<path class="st8" d="M320.6,117.9c0,0-1.5-1.8-2.4-4.8"/>
		<path class="st8" d="M297.3,120.5c0,0,4.2,0.5,6.2,1.1"/>
		<path class="st8" d="M303.8,125.7c0,0-2.5,1.2-4.4,1.7"/>
		<path class="st8" d="M314.2,121.8c0,0,2-1.3,6.3-1.3"/>
		<path class="st8" d="M314,125.7c0,0,3,2.2,5.4,2"/>
	</g>
	<g>
		<ellipse class="st0" cx="69.7" cy="415" rx="43.9" ry="4.3"/>
		<g>
			<path class="st2" d="M35.8,334.3c0,0-4.9-5.3-9.4-3c-4.5,2.3-1.4,11.8,1,17.6s-4.1,6,0.2,15.9c4.2,10,29.5,44.6,33.5,48
				C61.1,412.8,68.4,366.6,35.8,334.3z"/>
			<path class="st10" d="M26.4,331.3c0,0,30.2,38.6,34.7,81.5"/>
			<polyline class="st10" points="27.4,348.9 39.9,352 40.9,339.9 			"/>
			<path class="st10" d="M29,367.7l20.8,4.4c0,0,2.3-7.9,1.8-15.8"/>
			<polyline class="st10" points="42.2,388.1 56.4,389.8 59.5,379.2 			"/>
		</g>
		<g>
			<path class="st11" d="M94.7,412.6c0,0,22.7-5.3,12.3-62.3c-4.8-27.7-11.3-34.3-21.7-34.7C75,315.3,69,285.3,54,285.3
				s-19.3,24-7,48.3c12.3,24.3,24.8,25.7,27.8,34C77.7,376,67,414.6,94.7,412.6z"/>
			<path class="st12" d="M50,286c0,0,56,63.9,44.7,126.7"/>
			<path class="st12" d="M50,319.3c0,0,12.8-1.1,31.1,15.4"/>
			<path class="st12" d="M85,324.5c0,0,3.8,13.5,3.1,27.3"/>
			<path class="st12" d="M65.5,346.2c0,0,19.1,7.6,26.6,19"/>
			<path class="st12" d="M101.7,355.7c0,0-1,14.8-6,29.2"/>
			<path class="st12" d="M83,378.5c0,0,9.1,8.4,13.1,19.5"/>
		</g>
		<path class="st2" d="M42.3,414c0,0-2.7-15,9.7-18.2c12.3-3.2,16.3,7,16.3,7s24-8.5,27.8,11.2H42.3z"/>
	</g>
	<g>
		<ellipse class="st0" cx="435.5" cy="415" rx="43.9" ry="4.3"/>
		<g>
			<path class="st2" d="M404.2,332.8c0,0-3-6.5-8-5.8s-5,10.8-4.5,17s-5.7,4.4-4.8,15.2c0.9,10.8,14.3,51.5,17,56
				C403.9,415.3,425.2,373.6,404.2,332.8z"/>
			<path class="st10" d="M396.2,327.1c0,0,16.8,46.1,7.8,88.3"/>
			<polyline class="st10" points="391.7,344.1 402.6,351 407.3,339.7 			"/>
			<path class="st10" d="M387.4,362.5l18.5,10.6c0,0,4.7-6.8,6.6-14.4"/>
			<polyline class="st10" points="393.6,386 406.6,392 412.9,382.8 			"/>
		</g>
		<g>
			<path class="st11" d="M403.8,415.3c0,0-7.3-15.8-1.3-25.8s11.5-10.8,19.5-26.3s14-22.5,24.8-17.8s-12.3,35.5-8.8,38
				s8.8,31.8-22.8,31.8C413.3,415.3,403.8,415.3,403.8,415.3z"/>
			<path class="st12" d="M413.3,415.3c0,0,10.8-53.4,33.5-69.8"/>
			<line class="st12" x1="424.6" y1="365.7" x2="423.8" y2="380.5"/>
			<path class="st12" d="M432.8,380.5c0,0-9.4,6.5-14.1,14.5"/>
			<path class="st12" d="M409.5,390.3c0,0,5.7,8.2,5.8,16.6"/>
		</g>
		<path class="st2" d="M420,413.2c0,0-2.7-15,9.7-18.2c12.3-3.2,16.3,7,16.3,7s24-8.5,27.8,11.2H420z"/>
	</g>
</g>
<g id="DESIGNED_BY_FREEPIK">
</g>
</svg>
